<?xml version="1.0" encoding="UTF-8"?>
<svg version="1.1" xmlns="http://www.w3.org/2000/svg" width="256" height="256">
<path d="M0 0 C84.48 0 168.96 0 256 0 C256 84.48 256 168.96 256 256 C171.52 256 87.04 256 0 256 C0 171.52 0 87.04 0 0 Z " fill="#FEFEFE" transform="translate(0,0)"/>
<path d="M0 0 C0.66 0 1.32 0 2 0 C2 0.66 2 1.32 2 2 C8.93 2.33 15.86 2.66 23 3 C23 2.01 23 1.02 23 0 C26.96 0 30.92 0 35 0 C36.50372653 4.29039434 38.00314227 8.58220981 39.5 12.875 C39.92925781 14.09832031 40.35851562 15.32164062 40.80078125 16.58203125 C41.20683594 17.74863281 41.61289063 18.91523438 42.03125 20.1171875 C42.59682617 21.73536377 42.59682617 21.73536377 43.17382812 23.38623047 C44 26 44 26 44 28 C47.3 28 50.6 28 54 28 C54 28.66 54 29.32 54 30 C42.78 30 31.56 30 20 30 C20 29.34 20 28.68 20 28 C23.96 28 27.92 28 32 28 C29.36 20.74 26.72 13.48 24 6 C16.08 5.67 8.16 5.34 0 5 C-1.18817772 9.94867813 -1.18817772 9.94867813 -2.36254883 14.90063477 C-3.49329153 19.51474707 -5.01924431 23.68093101 -7 28 C-2.38 28 2.24 28 7 28 C7 28.66 7 29.32 7 30 C-1.58 30 -10.16 30 -19 30 C-19 29.34 -19 28.68 -19 28 C-15.7 28 -12.4 28 -9 28 C-8.73316406 26.7109375 -8.46632813 25.421875 -8.19140625 24.09375 C-7.08374776 19.1127025 -5.57984397 14.32713264 -3.9375 9.5 C-3.66873047 8.69046875 -3.39996094 7.8809375 -3.12304688 7.046875 C-1.13384956 1.13384956 -1.13384956 1.13384956 0 0 Z " fill="#080808" transform="translate(72,138)"/>
<path d="M0 0 C0.66 0 1.32 0 2 0 C2 7.59 2 15.18 2 23 C1.34 23 0.68 23 0 23 C-0.24234375 22.26394531 -0.4846875 21.52789062 -0.734375 20.76953125 C-2.97460351 14.24701979 -4.7660091 9.3446434 -10.5 5.1875 C-16.72140652 3.07666565 -23.85732735 2.84714591 -30.0625 5.25 C-33.04110345 7.02448716 -34.23971282 8.07812797 -36 11 C-36.5095891 13.64141601 -36.5095891 13.64141601 -36.4375 16.4375 C-36.45683594 17.36433594 -36.47617188 18.29117188 -36.49609375 19.24609375 C-35.83658685 22.90713599 -34.68117853 24.42675941 -32 27 C-28.54432173 28.66394 -28.54432173 28.66394 -24.75 29.8125 C-24.1003125 30.02841797 -23.450625 30.24433594 -22.78125 30.46679688 C-21.1922863 30.99255692 -19.59673952 31.49835055 -18 32 C-18 32.33 -18 32.66 -18 33 C-25.92 33 -33.84 33 -42 33 C-44.95332788 27.09334425 -45.24950146 20.20490912 -43.34765625 13.8046875 C-40.48811502 8.33105923 -34.82051955 3.16162396 -29 1 C-26.22443136 0.77989826 -23.58571285 0.66820599 -20.8125 0.6875 C-20.05525635 0.68878906 -19.2980127 0.69007812 -18.51782227 0.69140625 C-12.82917652 0.78905493 -8.25168868 1.70835403 -3 4 C-2.54625 3.34 -2.0925 2.68 -1.625 2 C-1.08875 1.34 -0.5525 0.68 0 0 Z " fill="#111111" transform="translate(183,85)"/>
<path d="M0 0 C2.97 0 5.94 0 9 0 C9.72176944 7.50640214 7.70836333 13.46322396 4 20 C-0.97898248 26.02998304 -6.87565785 29.22382453 -14.52734375 30.3828125 C-22.53783015 30.91148162 -28.19295912 27.94436879 -35 24 C-35.66 23.67 -36.32 23.34 -37 23 C-37.61875 23.99 -38.2375 24.98 -38.875 26 C-39.57625 26.99 -40.2775 27.98 -41 29 C-41.66 29 -42.32 29 -43 29 C-43 21.08 -43 13.16 -43 5 C-39.98441261 8.01558739 -39.02757019 9.97099912 -37.375 13.8125 C-34.42222163 19.92526925 -31.0777238 23.07111596 -25 26 C-18.75560052 28.08146649 -13.56112764 27.58334936 -7.625 24.75 C-2.99979268 22.37132195 -0.65475608 19.96426823 1 15 C1.09435979 13.00179272 1.12990301 11.00042797 1.125 9 C1.12757813 7.948125 1.13015625 6.89625 1.1328125 5.8125 C1.12353635 2.91873122 1.12353635 2.91873122 0 0 Z " fill="#141414" transform="translate(180,138)"/>
<path d="M0 0 C2 1 2 1 3.05322266 3.54443359 C3.4197998 4.65125488 3.78637695 5.75807617 4.1640625 6.8984375 C4.56367187 8.09984375 4.96328125 9.30125 5.375 10.5390625 C5.57996094 11.16844727 5.78492187 11.79783203 5.99609375 12.44628906 C6.62113758 14.36315483 7.25879235 16.27546364 7.8984375 18.1875 C11 27.59288758 11 27.59288758 11 31 C7.04 31 3.08 31 -1 31 C-2.32 28.36 -3.64 25.72 -5 23 C-5.99 25.64 -6.98 28.28 -8 31 C-8.66 31 -9.32 31 -10 31 C-8.60234839 24.14518608 -6.68335958 17.62181279 -4.4375 11 C-3.96280273 9.57107422 -3.96280273 9.57107422 -3.47851562 8.11328125 C-1.13375235 1.13375235 -1.13375235 1.13375235 0 0 Z " fill="#0E0E0E" transform="translate(89,87)"/>
<path d="M0 0 C0.66 0 1.32 0 2 0 C2 0.66 2 1.32 2 2 C9.26 2 16.52 2 24 2 C24 2.66 24 3.32 24 4 C21.49502996 5.25248502 19.79146726 5.11374406 16.9921875 5.09765625 C16.00605469 5.09443359 15.01992187 5.09121094 14.00390625 5.08789062 C12.97136719 5.07951172 11.93882813 5.07113281 10.875 5.0625 C9.31458984 5.05573242 9.31458984 5.05573242 7.72265625 5.04882812 C5.14838038 5.03701952 2.57421854 5.02055075 0 5 C-0.38091797 6.61068359 -0.38091797 6.61068359 -0.76953125 8.25390625 C-1.1168659 9.69018198 -1.46454033 11.12637556 -1.8125 12.5625 C-1.97814453 13.26697266 -2.14378906 13.97144531 -2.31445312 14.69726562 C-3.45916942 19.38412291 -4.98821013 23.61326048 -7 28 C-2.38 28 2.24 28 7 28 C7 28.66 7 29.32 7 30 C-1.58 30 -10.16 30 -19 30 C-19 29.34 -19 28.68 -19 28 C-15.7 28 -12.4 28 -9 28 C-8.73316406 26.7109375 -8.46632813 25.421875 -8.19140625 24.09375 C-7.08374776 19.1127025 -5.57984397 14.32713264 -3.9375 9.5 C-3.66873047 8.69046875 -3.39996094 7.8809375 -3.12304688 7.046875 C-1.13384956 1.13384956 -1.13384956 1.13384956 0 0 Z " fill="#252525" transform="translate(72,138)"/>
<path d="M0 0 C0.66 0 1.32 0 2 0 C2 7.59 2 15.18 2 23 C1.34 23 0.68 23 0 23 C-0.24234375 22.26394531 -0.4846875 21.52789062 -0.734375 20.76953125 C-3.77297057 11.70286719 -3.77297057 11.70286719 -10.6484375 5.37890625 C-14.62050595 3.74471025 -17.47645318 3.76436223 -21.75 3.9375 C-24.16499182 4.02983792 -26.58415765 4.06646456 -29 4 C-29.66 3.34 -30.32 2.68 -31 2 C-25.32814545 -0.83592728 -15.00018085 0.35496112 -8.875 1.671875 C-6.4375 2.5 -6.4375 2.5 -3 4 C-2.54625 3.34 -2.0925 2.68 -1.625 2 C-1.08875 1.34 -0.5525 0.68 0 0 Z " fill="#171717" transform="translate(183,85)"/>
<path d="M0 0 C3.01558739 3.01558739 3.97242981 4.97099912 5.625 8.8125 C8.62799095 15.0367444 11.99860361 17.82211772 18 21 C18.99 21.66 19.98 22.32 21 23 C19.359375 23.68359375 19.359375 23.68359375 17 24 C14.203125 22.78515625 14.203125 22.78515625 11.25 21.0625 C10.26515625 20.49660156 9.2803125 19.93070313 8.265625 19.34765625 C7.51796875 18.90292969 6.7703125 18.45820313 6 18 C5.38125 18.99 4.7625 19.98 4.125 21 C3.42375 21.99 2.7225 22.98 2 24 C1.34 24 0.68 24 0 24 C0 16.08 0 8.16 0 0 Z " fill="#111111" transform="translate(137,143)"/>
<path d="M0 0 C2 3 2 3 1.390625 6.21484375 C1.01421875 7.44332031 0.6378125 8.67179688 0.25 9.9375 C-0.11609375 11.16339844 -0.4821875 12.38929688 -0.859375 13.65234375 C-1.74979701 16.26567137 -2.6722445 18.59193434 -4 21 C-4.66 21 -5.32 21 -6 21 C-4.55613874 13.78069368 -2.42211826 6.94889267 0 0 Z " fill="#474747" transform="translate(69,145)"/>
<path d="M0 0 C1.16499023 -0.01836914 1.16499023 -0.01836914 2.35351562 -0.03710938 C6.27482309 -0.04724195 8.22868745 -0.0350417 11.5625 2.1875 C10.9025 2.8475 10.2425 3.5075 9.5625 4.1875 C8.5725 3.8575 7.5825 3.5275 6.5625 3.1875 C3.34333682 3.16237833 0.1408343 3.2145837 -3.07617188 3.31445312 C-4.86353349 3.34427172 -6.65190364 3.27233134 -8.4375 3.1875 C-9.0975 2.5275 -9.7575 1.8675 -10.4375 1.1875 C-7.16938198 -0.44655901 -3.58750593 0.00296243 0 0 Z " fill="#2B2B2B" transform="translate(162.4375,85.8125)"/>
<path d="M0 0 C-2.58744007 3.16242675 -5.04934204 4.08288297 -9 5 C-12.67353451 5.15685891 -16.32576557 5.11768011 -20 5 C-20 4.34 -20 3.68 -20 3 C-19.10796875 2.87882813 -18.2159375 2.75765625 -17.296875 2.6328125 C-15.54117188 2.38144531 -15.54117188 2.38144531 -13.75 2.125 C-12.58984375 1.96257812 -11.4296875 1.80015625 -10.234375 1.6328125 C-7.08016246 1.16821475 -7.08016246 1.16821475 -4.765625 -0.1328125 C-3 -1 -3 -1 0 0 Z " fill="#2B2B2B" transform="translate(177,163)"/>
<path d="M0 0 C1.65 0 3.3 0 5 0 C5 2.31 5 4.62 5 7 C3.35 7 1.7 7 0 7 C0 4.69 0 2.38 0 0 Z " fill="#535252" transform="translate(134,124)"/>
<path d="M0 0 C0.33 0.66 0.66 1.32 1 2 C1.66 2.33 2.32 2.66 3 3 C1.02 7.455 1.02 7.455 -1 12 C-1.66 12 -2.32 12 -3 12 C-2.68950274 10.56206608 -2.3765224 9.1246682 -2.0625 7.6875 C-1.88847656 6.88699219 -1.71445313 6.08648437 -1.53515625 5.26171875 C-1 3 -1 3 0 0 Z " fill="#353535" transform="translate(82,106)"/>
<path d="M0 0 C0.33 0 0.66 0 1 0 C1.17942163 3.94727588 1.09350689 6.5980513 -1 10 C-1.66 10 -2.32 10 -3 10 C-2.69201674 8.51988629 -2.378482 7.04092675 -2.0625 5.5625 C-1.88847656 4.73878906 -1.71445313 3.91507813 -1.53515625 3.06640625 C-1 1 -1 1 0 0 Z " fill="#363636" transform="translate(66,156)"/>
<path d="M0 0 C0.66 0 1.32 0 2 0 C2 1.65 2 3.3 2 5 C1.34 5 0.68 5 0 5 C-0.66 6.32 -1.32 7.64 -2 9 C-1.125 1.125 -1.125 1.125 0 0 Z " fill="#212121" transform="translate(72,138)"/>
</svg>
