<svg xmlns="http://www.w3.org/2000/svg" xmlns:xlink="http://www.w3.org/1999/xlink" width="500" zoomAndPan="magnify" viewBox="0 0 375 374.999991" height="500" preserveAspectRatio="xMidYMid meet" version="1.0"><defs><g/><clipPath id="c15d8a54b3"><path d="M 57.351562 172.328125 L 316.363281 172.328125 L 316.363281 202.378906 L 57.351562 202.378906 Z M 57.351562 172.328125 " clip-rule="nonzero"/></clipPath></defs><rect x="-37.5" width="450" fill="#ffffff" y="-37.499999" height="449.999989" fill-opacity="1"/><rect x="-37.5" width="450" fill="#ffffff" y="-37.499999" height="449.999989" fill-opacity="1"/><g fill="#000000" fill-opacity="1"><g transform="translate(190.64793, 242.722733)"><g><path d="M 77.140625 -116.140625 L 72.1875 -109.8125 C 70.132812 -110.945312 68.191406 -111.972656 66.359375 -112.890625 C 64.535156 -113.804688 62.679688 -114.546875 60.796875 -115.109375 C 58.921875 -115.679688 56.925781 -116.109375 54.8125 -116.390625 C 52.707031 -116.679688 50.285156 -116.828125 47.546875 -116.828125 C 41.960938 -116.828125 36.972656 -115.914062 32.578125 -114.09375 C 28.191406 -112.269531 24.457031 -109.816406 21.375 -106.734375 C 18.300781 -103.648438 15.960938 -100.113281 14.359375 -96.125 C 12.765625 -92.132812 11.96875 -87.914062 11.96875 -83.46875 C 11.96875 -77.425781 13.820312 -71.894531 17.53125 -66.875 C 21.238281 -61.863281 27.023438 -58.046875 34.890625 -55.421875 C 38.648438 -54.160156 41.84375 -53.128906 44.46875 -52.328125 C 47.09375 -51.535156 49.546875 -50.769531 51.828125 -50.03125 C 54.109375 -49.289062 56.414062 -48.492188 58.75 -47.640625 C 61.09375 -46.785156 63.800781 -45.613281 66.875 -44.125 C 70.75 -42.300781 73.367188 -39.765625 74.734375 -36.515625 C 76.109375 -33.265625 76.796875 -29.988281 76.796875 -26.6875 C 76.796875 -22.582031 76 -18.847656 74.40625 -15.484375 C 72.8125 -12.117188 70.703125 -9.296875 68.078125 -7.015625 C 65.453125 -4.734375 62.425781 -2.960938 59 -1.703125 C 55.582031 -0.453125 52.109375 0.171875 48.578125 0.171875 C 44.472656 0.171875 40.535156 -0.539062 36.765625 -1.96875 C 33.003906 -3.394531 29.523438 -5.414062 26.328125 -8.03125 C 23.140625 -10.65625 20.375 -13.90625 18.03125 -17.78125 C 15.695312 -21.664062 13.90625 -26 12.65625 -30.78125 C 12.3125 -32.269531 11.6875 -33.015625 10.78125 -33.015625 C 9.976562 -33.015625 9.578125 -32.21875 9.578125 -30.625 L 9.578125 0 C 9.578125 1.476562 10.09375 2.21875 11.125 2.21875 C 11.800781 2.21875 12.539062 1.648438 13.34375 0.515625 L 19.5 -8.375 C 20.863281 -7.125 22.539062 -5.8125 24.53125 -4.4375 C 26.53125 -3.070312 28.753906 -1.816406 31.203125 -0.671875 C 33.660156 0.460938 36.285156 1.398438 39.078125 2.140625 C 41.878906 2.878906 44.757812 3.25 47.71875 3.25 C 53.195312 3.25 58.269531 2.25 62.9375 0.25 C 67.613281 -1.738281 71.660156 -4.5 75.078125 -8.03125 C 78.503906 -11.570312 81.210938 -15.765625 83.203125 -20.609375 C 85.203125 -25.453125 86.203125 -30.671875 86.203125 -36.265625 C 86.203125 -43.898438 84.40625 -50.367188 80.8125 -55.671875 C 77.226562 -60.972656 71.554688 -64.765625 63.796875 -67.046875 C 61.171875 -67.847656 58.71875 -68.53125 56.4375 -69.09375 C 54.164062 -69.664062 51.832031 -70.296875 49.4375 -70.984375 C 47.039062 -71.671875 44.53125 -72.441406 41.90625 -73.296875 C 39.28125 -74.148438 36.375 -75.203125 33.1875 -76.453125 C 29.644531 -77.828125 26.960938 -79.9375 25.140625 -82.78125 C 23.316406 -85.632812 22.40625 -88.941406 22.40625 -92.703125 C 22.40625 -96.242188 23.144531 -99.351562 24.625 -102.03125 C 26.113281 -104.707031 28.023438 -106.898438 30.359375 -108.609375 C 32.703125 -110.328125 35.382812 -111.613281 38.40625 -112.46875 C 41.425781 -113.320312 44.472656 -113.75 47.546875 -113.75 C 52.222656 -113.75 56.328125 -112.945312 59.859375 -111.34375 C 63.398438 -109.75 66.367188 -107.640625 68.765625 -105.015625 C 71.160156 -102.398438 73.066406 -99.378906 74.484375 -95.953125 C 75.910156 -92.535156 76.851562 -89.003906 77.3125 -85.359375 C 77.425781 -84.210938 77.941406 -83.640625 78.859375 -83.640625 C 79.648438 -83.640625 80.046875 -84.210938 80.046875 -85.359375 L 80.046875 -115.796875 C 80.046875 -116.941406 79.707031 -117.515625 79.03125 -117.515625 C 78.457031 -117.515625 77.828125 -117.054688 77.140625 -116.140625 Z M 77.140625 -116.140625 "/></g></g></g><g fill="#000000" fill-opacity="1"><g transform="translate(73.208282, 245.249984)"><g><path d="M 3.828125 -2.78125 L 3.828125 0 L 42.390625 0 L 42.390625 -2.78125 L 21.890625 -2.78125 L 32.84375 -36.3125 L 67.765625 -36.3125 L 79.0625 -2.78125 L 61.15625 -2.78125 L 61.15625 0 L 112.0625 0 L 112.0625 -2.78125 L 96.953125 -2.78125 L 58.90625 -118.328125 L 56.8125 -118.328125 L 18.765625 -2.78125 Z M 50.21875 -88.78125 L 66.890625 -39.09375 L 33.875 -39.09375 Z M 50.21875 -88.78125 "/></g></g></g><g clip-path="url(#c15d8a54b3)"><path fill="#ffffff" d="M 57.351562 172.328125 L 316.421875 172.328125 L 316.421875 202.378906 L 57.351562 202.378906 Z M 57.351562 172.328125 " fill-opacity="1" fill-rule="nonzero"/></g><g fill="#000000" fill-opacity="1"><g transform="translate(143.283947, 191.496863)"><g><path d="M 4.203125 0.15625 C 3.460938 0.15625 2.742188 0.0546875 2.046875 -0.140625 C 1.359375 -0.335938 0.800781 -0.597656 0.375 -0.921875 L 1.109375 -2.5625 C 1.515625 -2.269531 1.992188 -2.035156 2.546875 -1.859375 C 3.109375 -1.679688 3.664062 -1.59375 4.21875 -1.59375 C 4.84375 -1.59375 5.300781 -1.679688 5.59375 -1.859375 C 5.894531 -2.046875 6.046875 -2.289062 6.046875 -2.59375 C 6.046875 -2.820312 5.957031 -3.007812 5.78125 -3.15625 C 5.601562 -3.300781 5.375 -3.414062 5.09375 -3.5 C 4.820312 -3.59375 4.457031 -3.695312 4 -3.8125 C 3.28125 -3.976562 2.691406 -4.144531 2.234375 -4.3125 C 1.773438 -4.488281 1.378906 -4.765625 1.046875 -5.140625 C 0.722656 -5.515625 0.5625 -6.015625 0.5625 -6.640625 C 0.5625 -7.191406 0.707031 -7.6875 1 -8.125 C 1.300781 -8.570312 1.75 -8.925781 2.34375 -9.1875 C 2.9375 -9.445312 3.664062 -9.578125 4.53125 -9.578125 C 5.132812 -9.578125 5.722656 -9.503906 6.296875 -9.359375 C 6.867188 -9.210938 7.367188 -9.007812 7.796875 -8.75 L 7.125 -7.09375 C 6.257812 -7.582031 5.390625 -7.828125 4.515625 -7.828125 C 3.910156 -7.828125 3.460938 -7.726562 3.171875 -7.53125 C 2.878906 -7.332031 2.734375 -7.070312 2.734375 -6.75 C 2.734375 -6.425781 2.898438 -6.1875 3.234375 -6.03125 C 3.566406 -5.875 4.082031 -5.71875 4.78125 -5.5625 C 5.5 -5.394531 6.082031 -5.222656 6.53125 -5.046875 C 6.988281 -4.878906 7.378906 -4.613281 7.703125 -4.25 C 8.035156 -3.882812 8.203125 -3.390625 8.203125 -2.765625 C 8.203125 -2.222656 8.050781 -1.726562 7.75 -1.28125 C 7.457031 -0.84375 7.007812 -0.492188 6.40625 -0.234375 C 5.800781 0.0234375 5.066406 0.15625 4.203125 0.15625 Z M 4.203125 0.15625 "/></g></g></g><g fill="#000000" fill-opacity="1"><g transform="translate(156.516042, 191.496863)"><g><path d="M 3.0625 -7.640625 L 0.046875 -7.640625 L 0.046875 -9.421875 L 8.265625 -9.421875 L 8.265625 -7.640625 L 5.25 -7.640625 L 5.25 0 L 3.0625 0 Z M 3.0625 -7.640625 "/></g></g></g><g fill="#000000" fill-opacity="1"><g transform="translate(169.4792, 191.496863)"><g><path d="M 5.640625 -3.34375 L 5.640625 0 L 3.453125 0 L 3.453125 -3.359375 L -0.1875 -9.421875 L 2.125 -9.421875 L 4.640625 -5.234375 L 7.15625 -9.421875 L 9.296875 -9.421875 Z M 5.640625 -3.34375 "/></g></g></g><g fill="#000000" fill-opacity="1"><g transform="translate(183.222282, 191.496863)"><g><path d="M 1.109375 -9.421875 L 3.296875 -9.421875 L 3.296875 -1.78125 L 8.015625 -1.78125 L 8.015625 0 L 1.109375 0 Z M 1.109375 -9.421875 "/></g></g></g><g fill="#000000" fill-opacity="1"><g transform="translate(195.997186, 191.496863)"><g><path d="M 8.40625 -1.75 L 8.40625 0 L 1.109375 0 L 1.109375 -9.421875 L 8.234375 -9.421875 L 8.234375 -7.671875 L 3.28125 -7.671875 L 3.28125 -5.625 L 7.65625 -5.625 L 7.65625 -3.921875 L 3.28125 -3.921875 L 3.28125 -1.75 Z M 8.40625 -1.75 "/></g></g></g><g fill="#000000" fill-opacity="1"><g transform="translate(209.673031, 191.496863)"><g><path d="M 4.203125 0.15625 C 3.460938 0.15625 2.742188 0.0546875 2.046875 -0.140625 C 1.359375 -0.335938 0.800781 -0.597656 0.375 -0.921875 L 1.109375 -2.5625 C 1.515625 -2.269531 1.992188 -2.035156 2.546875 -1.859375 C 3.109375 -1.679688 3.664062 -1.59375 4.21875 -1.59375 C 4.84375 -1.59375 5.300781 -1.679688 5.59375 -1.859375 C 5.894531 -2.046875 6.046875 -2.289062 6.046875 -2.59375 C 6.046875 -2.820312 5.957031 -3.007812 5.78125 -3.15625 C 5.601562 -3.300781 5.375 -3.414062 5.09375 -3.5 C 4.820312 -3.59375 4.457031 -3.695312 4 -3.8125 C 3.28125 -3.976562 2.691406 -4.144531 2.234375 -4.3125 C 1.773438 -4.488281 1.378906 -4.765625 1.046875 -5.140625 C 0.722656 -5.515625 0.5625 -6.015625 0.5625 -6.640625 C 0.5625 -7.191406 0.707031 -7.6875 1 -8.125 C 1.300781 -8.570312 1.75 -8.925781 2.34375 -9.1875 C 2.9375 -9.445312 3.664062 -9.578125 4.53125 -9.578125 C 5.132812 -9.578125 5.722656 -9.503906 6.296875 -9.359375 C 6.867188 -9.210938 7.367188 -9.007812 7.796875 -8.75 L 7.125 -7.09375 C 6.257812 -7.582031 5.390625 -7.828125 4.515625 -7.828125 C 3.910156 -7.828125 3.460938 -7.726562 3.171875 -7.53125 C 2.878906 -7.332031 2.734375 -7.070312 2.734375 -6.75 C 2.734375 -6.425781 2.898438 -6.1875 3.234375 -6.03125 C 3.566406 -5.875 4.082031 -5.71875 4.78125 -5.5625 C 5.5 -5.394531 6.082031 -5.222656 6.53125 -5.046875 C 6.988281 -4.878906 7.378906 -4.613281 7.703125 -4.25 C 8.035156 -3.882812 8.203125 -3.390625 8.203125 -2.765625 C 8.203125 -2.222656 8.050781 -1.726562 7.75 -1.28125 C 7.457031 -0.84375 7.007812 -0.492188 6.40625 -0.234375 C 5.800781 0.0234375 5.066406 0.15625 4.203125 0.15625 Z M 4.203125 0.15625 "/></g></g></g><g fill="#000000" fill-opacity="1"><g transform="translate(222.910381, 191.496863)"><g/></g></g></svg>