<?xml version="1.0" standalone="no"?>
<!DOCTYPE svg PUBLIC "-//W3C//DTD SVG 20010904//EN"
 "http://www.w3.org/TR/2001/REC-SVG-20010904/DTD/svg10.dtd">
<svg version="1.0" xmlns="http://www.w3.org/2000/svg"
 width="192.000000pt" height="192.000000pt" viewBox="0 0 192.000000 192.000000"
 preserveAspectRatio="xMidYMid meet">

<g transform="translate(0.000000,192.000000) scale(0.100000,-0.100000)"
fill="#000000" stroke="none">
<path d="M860 1148 c-69 -37 -104 -94 -108 -176 -3 -56 0 -74 20 -112 37 -69
94 -104 176 -108 56 -3 74 0 112 20 69 37 104 94 108 176 3 56 0 74 -20 112
-37 69 -94 104 -176 108 -56 3 -74 0 -112 -20z m163 -42 c103 -43 128 -177 48
-257 -65 -65 -157 -65 -222 0 -124 123 13 325 174 257z"/>
<path d="M919 1000 c-8 -9 -15 -26 -14 -38 1 -12 -3 -22 -9 -23 -6 0 -1 -4 12
-9 12 -5 22 -13 22 -18 0 -14 59 -10 64 5 3 7 13 13 23 13 10 0 14 4 8 8 -5 4
-10 14 -10 22 0 8 5 18 10 22 6 4 2 8 -8 8 -10 0 -20 6 -23 13 -7 19 -56 16
-75 -3z"/>
<path d="M0 577 c0 -135 16 -193 69 -246 20 -20 55 -42 77 -49 58 -17 1569
-17 1626 0 22 6 56 28 77 48 55 53 71 110 71 247 l0 113 -960 0 -960 0 0 -113z"/>
</g>
</svg>
